<svg xmlns="http://www.w3.org/2000/svg" version="1.1" xmlns:xlink="http://www.w3.org/1999/xlink" width="512" height="512" x="0" y="0" viewBox="0 0 32 32" style="enable-background:new 0 0 512 512" xml:space="preserve" class=""><g><path d="M27.86 25.84A8.527 8.527 0 0 1 20.54 30c-1.33 0-2.67-.31-3.92-.98-2.03-1.07-5.04-2.95-7.87-5.77-2.82-2.83-4.7-5.84-5.77-7.87-2.11-3.97-.71-8.9 3.18-11.24a.997.997 0 0 1 1.31.26l4.36 5.81c.25.33.27.78.05 1.13l-1.39 2.21c.11.79.59 3.16 2.7 5.26 2.1 2.1 4.46 2.59 5.26 2.7l2.21-1.39c.35-.22.8-.2 1.13.05l5.81 4.36c.41.3.52.87.26 1.31z" fill="#3b82f6" opacity="1" data-original="#3b82f6" class=""></path><path d="M22.61 2c-2.01-.01-3.94.74-5.38 2.16S15 7.48 15 9.5V16c0 .42.26.8.66.94s.84.02 1.11-.3c.01-.01.12-.15.3-.33.63-.64 1.65-.7 2.48-.14 1.2.81 2.77.83 2.95.83 2.02 0 3.92-.79 5.34-2.23s2.19-3.35 2.16-5.38c-.06-4.02-3.37-7.33-7.39-7.39zm.89 10.25c0 .55-.45 1-1 1s-1-.45-1-1v-3c0-.55.45-1 1-1s1 .45 1 1zm-1-4.89c-.55 0-1-.45-1-1s.45-1 1-1 1 .45 1 1-.45 1-1 1z" fill="#3b82f6" opacity="1" data-original="#3b82f6" class=""></path></g></svg>