<svg xmlns="http://www.w3.org/2000/svg" version="1.1" xmlns:xlink="http://www.w3.org/1999/xlink" width="512" height="512" x="0" y="0" viewBox="0 0 512 512" style="enable-background:new 0 0 512 512" xml:space="preserve" class=""><g><path d="M279.444 373.555a33.139 33.139 0 1 0 0 46.865 33.161 33.161 0 0 0 0-46.865zM47.253 180.1c120.121-102.82 297.37-102.82 417.49 0 18.848 16.128 44.439-13.3 25.485-29.537-134.7-115.4-333.757-115.4-468.46 0-18.98 16.261 6.744 45.585 25.485 29.537zm351.565 49.051a245.067 245.067 0 0 0-5.225-3.119 1.849 1.849 0 0 0-1.892 0c-1.84 1.066-3.6 2.106-5.252 3.119-19.993 12-29.99 17.967-89.544 13.942a1.871 1.871 0 0 0-2 2.079c.879 7.225 1.732 14.449 2.532 21.353 13.249 111.617 15.435 129.931 94.183 181.168a1.9 1.9 0 0 0 2.052 0c78.748-51.237 80.907-69.551 94.156-181.168.827-6.9 1.68-14.128 2.559-21.353a1.871 1.871 0 0 0-2-2.079c-59.581 4.025-69.551-1.946-89.571-13.942zm-111.67 80.667c-1.519-11.383-3.012-23.939-4.692-37.881a1.868 1.868 0 0 0-1.546-1.653 151.841 151.841 0 0 0-64.939 3.839 141.272 141.272 0 0 0-36.681 16.768c-21.38 13.7.8 45.745 21.326 32.656a101.06 101.06 0 0 1 84.106-11.676 1.9 1.9 0 0 0 2.426-2.053zM388.8 209.875a7.657 7.657 0 0 1 7.7 0c4.985 2.8 10.823 6.451 16 9.33a1.874 1.874 0 0 0 2.319-2.879 19.519 19.519 0 0 0-2.532-2.372 251.173 251.173 0 0 0-312.565 0c-19.7 15.675 5.2 45.692 24.419 30.416 66.751-53.022 160.267-61.179 234.51-19.513a1.736 1.736 0 0 0 1.493.133c9.89-3.225 18.82-9.677 28.657-15.115zm-35.034 128.838a7.742 7.742 0 0 1 11.756-10.077l16.768 19.674a1.836 1.836 0 0 0 2.693.16l56.117-52.09a7.752 7.752 0 0 1 10.556 11.356l-63.446 58.915a7.79 7.79 0 0 1-11.2-.614z" fill="#3b82f6" opacity="1" data-original="#3b82f6"></path></g></svg>