<svg xmlns="http://www.w3.org/2000/svg" version="1.1" xmlns:xlink="http://www.w3.org/1999/xlink" width="512" height="512" x="0" y="0" viewBox="0 0 24 24" style="enable-background:new 0 0 512 512" xml:space="preserve" class=""><g><g fill="#3b82f6"><path d="m18 11 4 2a10 10 0 0 1-4 8 10 10 0 0 1-4-8z" fill="#3b82f6" opacity="1" data-original="#3b82f6"></path><path d="M4 17a2 2 0 0 1-2-2h10.19c.117.681.278 1.352.508 2zm9.105-5.79 4-2a2.002 2.002 0 0 1 1.79 0L20 9.765V5a2 2 0 0 0-2-2H6a2 2 0 0 0-2 2v8h8c0-.757.428-1.45 1.105-1.79z" opacity="1" fill="#3b82f630" data-original="#3b82f630" class=""></path></g></g></svg>