<svg xmlns="http://www.w3.org/2000/svg" version="1.1" xmlns:xlink="http://www.w3.org/1999/xlink" width="512" height="512" x="0" y="0" viewBox="0 0 24 24" style="enable-background:new 0 0 512 512" xml:space="preserve" class=""><g><g fill="#3b82f6"><path d="M16 22h4a2 2 0 0 0 2-2v-2c0-.93-.639-1.706-1.5-1.93V14c0-1.378-1.121-2.5-2.5-2.5s-2.5 1.122-2.5 2.5v2.07c-.861.224-1.5 1-1.5 1.93v2a2 2 0 0 0 2 2zm.5-8c0-.827.673-1.5 1.5-1.5s1.5.673 1.5 1.5v2h-3z" fill="#3b82f6" opacity="1" data-original="#3b82f6" class=""></path><path d="M15.798 2.754a10.049 10.049 0 0 1 4.767 4.11H17.59c-.42-1.627-1.033-3.029-1.792-4.11zM8.202 21.246c-.759-1.081-1.373-2.483-1.792-4.11H3.435a10.048 10.048 0 0 0 4.767 4.11zM2 12a9.93 9.93 0 0 0 .65 3.513h3.413c-.181-1.104-.28-2.283-.28-3.513s.099-2.409.28-3.514H2.649A9.931 9.931 0 0 0 2 12zm6.074-5.135h7.852C15.064 3.835 13.498 2 12 2S8.936 3.836 8.074 6.865zm4.44 15.058A3.95 3.95 0 0 1 12 20v-2c0-.298.041-.586.104-.865h-4.03C8.936 20.165 10.503 22 12 22c.17 0 .343-.03.514-.077zM3.435 6.865H6.41c.42-1.628 1.033-3.03 1.792-4.111a10.049 10.049 0 0 0-4.767 4.11zm17.916 1.621h-3.414c.081.493.139 1.006.185 1.526a4 4 0 0 1 3.796 3.18A9.67 9.67 0 0 0 22 12a9.93 9.93 0 0 0-.65-3.514zM14 14.556V14a4 4 0 0 1 2.52-3.709 19.705 19.705 0 0 0-.227-1.805H7.707c-.19 1.073-.302 2.246-.302 3.514s.112 2.441.302 3.513h5.18c.31-.38.686-.708 1.113-.957z" opacity="1" fill="#3b82f630" data-original="#3b82f630" class=""></path></g></g></svg>