<svg width="20" height="16" viewBox="0 0 20 16" fill="none" xmlns="http://www.w3.org/2000/svg">
<path fill-rule="evenodd" clip-rule="evenodd" d="M0 2.66667C0 1.95942 0.316071 1.28115 0.87868 0.781049C1.44129 0.280952 2.20435 0 3 0H17C17.7956 0 18.5587 0.280952 19.1213 0.781049C19.6839 1.28115 20 1.95942 20 2.66667V13.3333C20 14.0406 19.6839 14.7189 19.1213 15.219C18.5587 15.719 17.7956 16 17 16H3C2.20435 16 1.44129 15.719 0.87868 15.219C0.316071 14.7189 0 14.0406 0 13.3333V2.66667ZM3 1.77778C2.73478 1.77778 2.48043 1.87143 2.29289 2.03813C2.10536 2.20483 2 2.43092 2 2.66667V13.3333C2 13.5691 2.10536 13.7952 2.29289 13.9619C2.48043 14.1286 2.73478 14.2222 3 14.2222H17C17.2652 14.2222 17.5196 14.1286 17.7071 13.9619C17.8946 13.7952 18 13.5691 18 13.3333V2.66667C18 2.43092 17.8946 2.20483 17.7071 2.03813C17.5196 1.87143 17.2652 1.77778 17 1.77778H3ZM14 3.55556C14 3.31981 14.1054 3.09372 14.2929 2.92702C14.4804 2.76032 14.7348 2.66667 15 2.66667H16C16.2652 2.66667 16.5196 2.76032 16.7071 2.92702C16.8946 3.09372 17 3.31981 17 3.55556C17 3.7913 16.8946 4.0174 16.7071 4.18409C16.5196 4.35079 16.2652 4.44444 16 4.44444H15C14.7348 4.44444 14.4804 4.35079 14.2929 4.18409C14.1054 4.0174 14 3.7913 14 3.55556ZM7 8C7 7.29276 7.31607 6.61448 7.87868 6.11438C8.44129 5.61428 9.20435 5.33333 10 5.33333C10.7956 5.33333 11.5587 5.61428 12.1213 6.11438C12.6839 6.61448 13 7.29276 13 8C13 8.70724 12.6839 9.38552 12.1213 9.88562C11.5587 10.3857 10.7956 10.6667 10 10.6667C9.20435 10.6667 8.44129 10.3857 7.87868 9.88562C7.31607 9.38552 7 8.70724 7 8ZM10 3.55556C8.67392 3.55556 7.40215 4.02381 6.46447 4.8573C5.52678 5.6908 5 6.82126 5 8C5 9.17874 5.52678 10.3092 6.46447 11.1427C7.40215 11.9762 8.67392 12.4444 10 12.4444C11.3261 12.4444 12.5979 11.9762 13.5355 11.1427C14.4732 10.3092 15 9.17874 15 8C15 6.82126 14.4732 5.6908 13.5355 4.8573C12.5979 4.02381 11.3261 3.55556 10 3.55556Z" fill="#F8F8F8"/>
</svg>
