<svg xmlns="http://www.w3.org/2000/svg" version="1.1" xmlns:xlink="http://www.w3.org/1999/xlink" width="512" height="512" x="0" y="0" viewBox="0 0 24 24" style="enable-background:new 0 0 512 512" xml:space="preserve" class=""><g><g fill="#3b82f6"><path d="M22.375 14.005a10 10 0 0 1-4 8 10 10 0 0 1-4-8l4-2z" fill="#3b82f6" opacity="1" data-original="#3b82f6" class=""></path><path d="M14.625 11.644V10.22c0-2.287-1.682-4.24-3.83-4.445a4.243 4.243 0 0 0-3.82 1.68.749.749 0 1 1-1.2-.9 5.722 5.722 0 0 1 5.163-2.273c2.908.278 5.187 2.886 5.187 5.938v.674l-1.5.75zm-12.25 2.682a.75.75 0 0 0 .75-.75v-3.297c0-3.964 2.972-7.262 6.766-7.508A7.268 7.268 0 0 1 14 3.725a.75.75 0 1 0 .751-1.298 8.747 8.747 0 0 0-4.957-1.153c-4.58.297-8.169 4.252-8.169 9.005v3.297c0 .414.336.75.75.75zm2.25-4.32v6A6.776 6.776 0 0 0 8 21.851a.75.75 0 0 0 .751-1.299 5.27 5.27 0 0 1-2.626-4.548v-6a.75.75 0 0 0-1.5 0zm14.5.158v-.159c0-1.538-.405-3.05-1.17-4.375a.75.75 0 0 0-1.3.75c.635 1.098.97 2.351.97 3.625v.16a1.985 1.985 0 0 1 1.5 0zm-6-.052c0-1.395-.986-2.607-2.294-2.82a2.766 2.766 0 0 0-2.237.618 2.747 2.747 0 0 0-.969 2.095v4c0 4.752 3.81 8.623 8.533 8.74a11.962 11.962 0 0 1-1.467-1.695c-3.187-.763-5.566-3.628-5.566-7.045v-4a1.248 1.248 0 0 1 1.466-1.232c.59.096 1.034.671 1.034 1.34v4.892c0 1.168.547 2.243 1.43 2.941a11.943 11.943 0 0 1-.68-3.94c0-.611.287-1.17.75-1.545v-2.349z" opacity="1" fill="#3b82f630" data-original="#3b82f630"></path></g></g></svg>