<svg xmlns="http://www.w3.org/2000/svg" version="1.1" xmlns:xlink="http://www.w3.org/1999/xlink" width="512" height="512" x="0" y="0" viewBox="0 0 512 512" style="enable-background:new 0 0 512 512" xml:space="preserve" class=""><g><linearGradient id="a" x1="115.57" x2="358.912" y1="419.26" y2="-2.22" gradientUnits="userSpaceOnUse"><stop offset=".044" stop-color="#3b82f6"></stop><stop offset=".754" stop-color="#3b82f6"></stop></linearGradient><path fill="url(#a)" d="M55.582 262.648c-15.009 0-27.127 12.245-27.127 27.251 0 14.886 12.118 27.011 27.127 27.011 14.885 0 27.012-12.125 27.012-27.011 0-15.006-12.127-27.251-27.012-27.251zm0 42.137c-8.285 0-15.009-6.722-15.009-14.886 0-8.404 6.724-15.127 15.009-15.127 8.165 0 14.885 6.723 14.885 15.127 0 8.164-6.72 14.886-14.885 14.886zm450.415-173.83c0-46.097-37.451-83.552-83.427-83.552-26.653 0-50.424 12.604-65.669 32.171-41.655-2.64-80.91-16.565-113.684-40.334-2.043-1.56-4.926-1.56-7.085 0C186.313 75.372 119.806 88.458 58.22 74.173c-1.797-.359-3.723.12-5.162 1.199-1.438 1.202-2.275 2.884-2.275 4.804V240.44c-25.093 2.4-44.779 23.649-44.779 49.459 0 27.25 22.207 49.459 49.579 49.459.841 0 1.8 0 2.638-.12 25.574 68.187 112.484 122.69 180.436 134.574.362.119.721.119 1.08.119.239 0 .598 0 .961-.119 78.514-13.566 187.875-86.556 187.875-174.43v-85.234c43.217-3.121 77.424-39.255 77.424-83.193zM18.125 289.899c0-20.769 16.807-37.576 37.457-37.576 16.206 0 30.612 10.446 35.654 25.931.718 2.522 3.119 4.203 5.761 4.203h155.701c3.964 0 7.323 3.36 7.323 7.443 0 3.363-2.638 6.482-5.882 7.082-2.884.48-5.041 3.003-5.041 6.004v11.165h-8.521c-2.526-6.483-8.766-11.165-16.09-11.165-7.443 0-13.686 4.681-16.203 11.165h-8.406v-10.925c0-3.362-2.762-6.123-6-6.123H96.997c-2.642 0-5.043 1.681-5.761 4.203-5.042 15.485-19.331 25.931-35.654 25.931-20.65-.003-37.457-16.811-37.457-37.338zm220.893-132.173c-20.411 0-36.981 16.566-36.981 36.975v6.361h-9.121v-6.361c0-25.332 20.65-45.979 46.103-45.979 25.207 0 45.855 20.647 45.855 45.979v28.451h-9.003v-28.451c-.001-20.409-16.569-36.975-36.853-36.975zm69.864 77.552v108.041c0 8.286-6.723 15.008-15.006 15.008H185.474c-8.285 0-15.01-6.723-15.01-15.008v-34.091h17.289v6.362c0 5.882 4.799 10.683 10.808 10.683h14.765c3.242 0 6-2.762 6-6 0-2.763 2.404-5.164 5.162-5.164 2.762 0 5.045 2.4 5.045 5.164 0 3.239 2.758 6 6.121 6h14.764c5.883 0 10.811-4.801 10.811-10.683v-8.284c6.48-3.242 10.921-9.965 10.921-17.407 0-10.806-8.765-19.569-19.45-19.569h-82.234v-35.052zm-69.147 226.41C175.993 450.164 95.197 399.983 70.35 337.076c13.683-4.2 25.09-14.283 30.853-27.848h57.143v34.091c0 14.888 12.119 27.131 27.129 27.131h108.402c14.883 0 27.131-12.243 27.131-27.131V229.274c0-3.361-2.762-6.123-6-6.123h-18.01V194.7c0-32.054-26.049-58.103-57.979-58.103-32.177 0-58.229 26.049-58.229 58.103v12.486c0 3.242 2.761 6.001 6.123 6.001h21.251c3.238 0 6.001-2.76 6.001-6.001V194.7c0-13.687 11.165-24.852 24.854-24.852 13.563 0 24.728 11.165 24.728 24.852v28.451h-99.281c-3.361 0-6.119 2.762-6.119 6.123v41.056h-57.143a49.545 49.545 0 0 0-38.296-29.531V87.618c62.06 12.363 125.925-.599 176.829-36.014 31.932 22.209 69.504 35.774 109.363 39.495-6.359 11.886-10.083 25.451-10.083 39.856 0 43.938 34.212 80.072 77.425 83.193v85.234c-.002 81.152-102.637 148.981-176.707 162.306zM422.57 202.264c-39.378 0-71.433-32.053-71.433-71.309 0-39.375 32.055-71.429 71.433-71.429 39.252 0 71.304 32.054 71.304 71.429 0 39.256-32.052 71.309-71.304 71.309zm45.857-93.278c-1.199 1.801-3.121 2.762-5.041 2.762-1.205 0-2.285-.361-3.36-.961-11.169-7.322-24.13-11.165-37.455-11.165-13.448 0-26.532 3.843-37.699 11.165-2.759 1.801-6.479 1.082-8.402-1.801-1.802-2.761-.96-6.483 1.802-8.401 13.086-8.524 28.449-13.086 44.3-13.086a80.598 80.598 0 0 1 44.056 13.086c2.877 1.917 3.596 5.64 1.799 8.401zm-12.607 21.729c-1.921 2.641-5.761 3.362-8.404 1.442-7.324-5.044-15.843-7.805-24.846-7.805-9.126 0-17.769 2.761-24.973 7.805-1.079.719-2.282 1.08-3.482 1.08-1.921 0-3.842-.84-5.043-2.522-1.92-2.76-1.2-6.603 1.56-8.523 9.248-6.484 20.293-9.964 31.938-9.964 11.401 0 22.447 3.479 31.812 9.964 2.639 1.92 3.356 5.763 1.438 8.523zm-13.563 13.446c2.523 2.161 2.88 5.882.718 8.524a5.916 5.916 0 0 1-4.562 2.16c-1.44 0-2.762-.479-3.961-1.439-3.244-2.762-7.439-4.203-11.882-4.203-4.683 0-8.764 1.441-12.128 4.203-2.642 2.16-6.365 1.799-8.523-.72-2.166-2.521-1.799-6.363.721-8.524 5.518-4.681 12.484-7.083 19.931-7.083a30.928 30.928 0 0 1 19.686 7.082zm-15.488 19.808c1.201 1.08 1.803 2.642 1.803 4.322 0 1.558-.602 3.12-1.803 4.203-1.082 1.198-2.639 1.798-4.198 1.798-1.687 0-3.124-.6-4.322-1.798-1.206-1.083-1.808-2.645-1.808-4.203 0-1.681.602-3.243 1.808-4.322 2.277-2.281 6.358-2.281 8.52 0z" opacity="1" data-original="url(#a)"></path></g></svg>